<?xml version="1.0" encoding="utf-8"?>
<!-- Generator: Adobe Illustrator 26.5.0, SVG Export Plug-In . SVG Version: 6.00 Build 0)  -->
<svg version="1.1" id="Layer_1" xmlns="http://www.w3.org/2000/svg" xmlns:xlink="http://www.w3.org/1999/xlink" x="0px" y="0px"
	 viewBox="0 0 200 200" style="enable-background:new 0 0 200 200;" xml:space="preserve">
<style type="text/css">
	.st0{fill:#FFFFFF;}
</style>
<g>
	<path class="st0" d="M104.17,3.04c3.94,0.5,7.87,0.97,11.81,1.5c1.31,0.18,2.61,0.45,3.9,0.75c3.24,0.76,5.08,3.67,4.39,6.86
		c-0.63,2.92-3.5,4.84-6.61,4.25c-6.72-1.28-13.47-2.09-20.32-1.89C57.45,15.66,22.81,45.5,15.87,84.92
		c-4.37,24.85,1.55,47.29,16.55,67.45c0.26,0.35,0.54,0.67,1.21,1.48c-0.25-1.74-0.41-2.92-0.58-4.1c-0.55-3.67,1.42-6.58,4.83-7.12
		c3.17-0.51,5.94,1.83,6.46,5.44c0.96,6.74,1.92,13.49,2.91,20.23c0.78,5.35-2.37,8.3-7.72,7.25c-7.3-1.43-14.62-2.8-21.92-4.23
		c-3.51-0.69-5.6-3.48-5.04-6.6c0.61-3.35,3.59-5.2,7.28-4.53c1.48,0.27,2.97,0.54,4.84,0.88c-0.58-0.78-0.95-1.31-1.34-1.82
		c-11.7-15.35-18.34-32.66-20-51.88c-0.05-0.56-0.22-1.1-0.33-1.65c0-4.04,0-8.08,0-12.12c0.11-0.48,0.29-0.96,0.33-1.45
		c0.95-12.09,4.01-23.64,9.56-34.4c15.02-29.08,38.47-47.1,70.76-53.26C87.3,3.8,91.01,3.51,94.7,3.04
		C97.85,3.04,101.01,3.04,104.17,3.04z"/>
	<path class="st0" d="M100.18,41.2c32.77,0.14,59.14,26.74,58.96,59.47c-0.18,32.68-26.78,59.05-59.39,58.87
		c-32.49-0.17-58.91-26.81-58.81-59.3C41.03,67.6,67.66,41.06,100.18,41.2z M147.75,100.36c-0.02-26.37-21.3-47.71-47.65-47.75
		c-26.26-0.04-47.69,21.34-47.76,47.67c-0.07,26.33,21.46,47.91,47.78,47.88C126.39,148.13,147.77,126.68,147.75,100.36z"/>
	<path class="st0" d="M175.73,39.1c2.57,3.85,5.22,7.46,7.49,11.3c10.78,18.21,15.29,37.89,13.33,58.97
		c-3.98,42.72-35.86,77.66-78.14,85.85c-12.5,2.42-24.97,2.3-37.43-0.18c-4.71-0.94-6.82-5.54-4.2-9.08c1.74-2.35,4.12-2.47,6.8-2.1
		c4.99,0.69,10,1.55,15.02,1.66c38.99,0.9,73.85-25.22,83.89-63.13c7.07-26.72,2.03-51.35-14.11-73.74
		c-0.43-0.6-0.93-1.16-1.74-1.67c0.08,0.76,0.22,1.51,0.24,2.27c0.03,1.5,0.27,3.07-0.08,4.48c-0.59,2.39-3.07,3.93-5.48,3.84
		c-2.55-0.1-4.79-1.77-5.28-4.36c-0.75-3.96-1.24-7.97-1.83-11.97c-0.48-3.31-0.91-6.62-1.4-9.93c-0.68-4.56,2.65-7.74,7.17-6.86
		c7.49,1.47,14.98,2.89,22.47,4.34c3.65,0.71,5.73,3.59,5.02,6.94c-0.66,3.11-3.7,4.91-7.15,4.24
		C178.86,39.68,177.37,39.41,175.73,39.1z"/>
	<path class="st0" d="M105.73,127.78c0,1.66,0.04,3.17-0.01,4.67c-0.1,3.17-2.43,5.52-5.5,5.6c-3.13,0.08-5.68-2.26-5.85-5.47
		c-0.08-1.56-0.01-3.14-0.01-4.87c-4.15-0.18-7.97-1.02-11.34-3.36c-1.55-1.08-2.54-2.45-2.71-4.33c-0.2-2.18,0.59-3.98,2.41-5.23
		c1.88-1.28,3.98-1.52,5.89-0.31c2.37,1.51,4.88,1.86,7.59,1.79c3.09-0.08,6.19,0.01,9.28-0.03c3.4-0.05,5.59-2.09,5.58-5.11
		c0-3.04-2.19-5-5.6-5.06c-4.66-0.08-9.38,0.25-13.98-0.36c-8.5-1.12-14.17-8.46-13.82-17.13c0.32-8.05,6.91-14.74,15.2-15.44
		c0.43-0.04,0.86-0.06,1.49-0.11c0-1.51-0.02-2.95,0-4.38c0.06-3.46,2.53-6.05,5.72-6.05c3.22,0.01,5.61,2.56,5.66,6.07
		c0.02,1.38,0,2.76,0,4.18c1.7,0.34,3.3,0.58,4.86,0.98c3.25,0.84,6.02,2.55,8.39,4.91c2.46,2.45,2.59,5.99,0.34,8.29
		c-2.19,2.25-5.71,2.31-8.15-0.02c-1.9-1.82-4.06-2.63-6.67-2.56c-3.28,0.08-6.56,0-9.85,0.03c-3.37,0.03-5.63,2.09-5.64,5.07
		c0,2.95,2.31,5.07,5.63,5.1c3.79,0.03,7.58-0.04,11.36,0.03c8.76,0.14,15.84,6.63,16.4,14.96c0.61,9.13-5.2,16.4-14.2,17.76
		C107.46,127.54,106.72,127.64,105.73,127.78z"/>
</g>
</svg>
